<svg xmlns="http://www.w3.org/2000/svg" version="1.1" xmlns:xlink="http://www.w3.org/1999/xlink" xmlns:svgjs="http://svgjs.dev/svgjs" width="1000" height="1000" viewBox="0 0 1000 1000"><rect width="1000" height="1000" fill="#ffffff"></rect><g transform="matrix(0.7,0,0,0.7,149.57575757575756,282.1265587044535)"><svg viewBox="0 0 396 247" data-background-color="#ffffff" preserveAspectRatio="xMidYMid meet" height="623" width="1000" xmlns="http://www.w3.org/2000/svg" xmlns:xlink="http://www.w3.org/1999/xlink"><g id="tight-bounds" transform="matrix(1,0,0,1,0.2400000000000091,-0.09999999999999432)"><svg viewBox="0 0 395.52 247.2" height="247.2" width="395.52"><g><svg></svg></g><g><svg viewBox="0 0 395.52 247.2" height="247.2" width="395.52"><g transform="matrix(1,0,0,1,144.97198500000002,37.08)"><svg viewBox="0 0 105.57602999999997 173.04" height="173.04" width="105.57602999999997"><g><svg viewBox="0 0 105.57602999999997 173.04" height="173.04" width="105.57602999999997"><g><svg viewBox="0 0 105.57602999999997 173.04" height="173.04" width="105.57602999999997"><g><svg viewBox="0 0 105.57602999999997 173.04" height="173.04" width="105.57602999999997"><g id="textblocktransform"><svg viewBox="0 0 105.57602999999997 173.04" height="173.04" width="105.57602999999997" id="textblock"><g><svg viewBox="0 0 105.57602999999997 173.04" height="173.04" width="105.57602999999997"><g transform="matrix(1,0,0,1,0,0)"><svg width="105.57602999999997" viewBox="4 -39.95000076293945 24.404998779296875 40" height="173.04" data-palette-color="#000000"><path d="M26.6 0.05L7.15 0.05Q5.3 0.05 4.65-0.9 4-1.85 4-3L4-3 4-37.55Q4-39.95 6.9-39.95L6.9-39.95Q9.9-39.95 9.9-37.55L9.9-37.55 9.9-5 26.6-5Q28.4-5 28.4-2.55L28.4-2.55Q28.5 0.05 26.6 0.05L26.6 0.05Z" opacity="1" transform="matrix(1,0,0,1,0,0)" fill="#000000" class="wordmark-text-0" data-fill-palette-color="primary" id="text-0"></path></svg></g></svg></g></svg></g></svg></g><g></g></svg></g></svg></g></svg></g><g><path xmlns="http://www.w3.org/2000/svg" d="M0 247.2v-247.2h395.52v247.2zM379.915 231.595v-215.99h-364.31v215.99z" fill="#000000" fill-rule="nonzero" stroke="none" stroke-width="1" stroke-linecap="butt" stroke-linejoin="miter" stroke-miterlimit="10" stroke-dasharray="" stroke-dashoffset="0" font-family="none" font-weight="none" font-size="none" text-anchor="none" style="mix-blend-mode: normal" data-fill-palette-color="tertiary"></path></g></svg></g><defs></defs></svg><rect width="395.52" height="247.2" fill="none" stroke="none" visibility="hidden"></rect></g></svg></g></svg>