<?xml version="1.0" standalone="no"?>
<!DOCTYPE svg PUBLIC "-//W3C//DTD SVG 20010904//EN"
 "http://www.w3.org/TR/2001/REC-SVG-20010904/DTD/svg10.dtd">
<svg version="1.0" xmlns="http://www.w3.org/2000/svg"
 width="1000.000000pt" height="1000.000000pt" viewBox="0 0 1000.000000 1000.000000"
 preserveAspectRatio="xMidYMid meet">
<metadata>
Created by potrace 1.14, written by Peter Selinger 2001-2017
</metadata>
<g transform="translate(0.000000,1000.000000) scale(0.100000,-0.100000)"
fill="#000000" stroke="none">
<path d="M9 8103 c-1 -5 -2 -1406 -3 -3116 l-1 -3107 4989 2 4989 3 -1 3095
c0 1702 -1 3103 -1 3113 -1 16 -245 17 -4986 17 -2742 0 -4985 -3 -4986 -7z
m9573 -392 c3 0 6 -1225 7 -2721 l0 -2720 -122 0 c-1362 -2 -9061 0 -9063 3
-3 3 -4 24 -4 127 0 19 0 62 -1 95 0 33 0 65 1 70 1 6 1 15 0 20 -1 6 -1 33 0
60 1 55 1 80 -1 172 0 34 2 67 6 72 3 6 1 11 -5 11 -6 0 -9 4 -6 8 6 10 7 37
6 170 0 51 2 97 5 102 3 6 1 10 -6 10 -8 0 -9 3 0 13 6 8 9 16 6 19 -9 8 -10
128 -2 128 5 0 5 5 2 11 -4 5 -6 36 -6 67 2 74 2 113 0 189 0 34 2 67 6 72 3
6 3 11 -2 11 -4 0 -8 29 -8 65 0 36 3 65 7 65 3 0 3 12 -1 28 -4 15 -4 39 0
54 4 14 5 29 2 32 -8 7 -5 184 2 196 3 6 1 10 -6 10 -9 0 -10 3 -2 11 6 6 8
24 4 42 -4 18 -5 43 -4 57 4 30 4 64 2 150 0 36 0 70 1 75 1 6 1 15 0 20 -1 6
-1 33 0 60 1 55 1 80 -1 172 0 34 2 67 6 72 3 6 1 11 -5 11 -6 0 -9 4 -6 8 6
10 7 37 6 170 0 51 2 97 5 102 3 6 1 10 -6 10 -8 0 -9 3 0 13 6 8 9 16 6 19
-9 8 -10 128 -2 128 5 0 5 5 2 11 -4 5 -6 36 -6 67 2 74 2 113 0 189 0 34 2
67 6 72 3 6 3 11 -2 11 -4 0 -8 29 -8 65 0 36 3 65 7 65 3 0 3 12 -1 28 -4 15
-4 39 0 54 4 14 5 29 2 32 -8 7 -5 184 2 196 3 6 1 10 -6 10 -9 0 -10 3 -2 11
6 6 8 24 4 42 -4 18 -5 43 -4 57 4 30 4 64 2 150 0 36 0 70 1 75 1 6 1 15 0
20 -1 6 -1 33 0 60 1 55 1 80 -1 172 0 34 2 67 6 72 3 6 1 11 -5 11 -6 0 -9 4
-6 8 6 10 7 37 6 170 0 51 2 97 5 102 3 6 1 10 -6 10 -8 0 -9 3 0 13 6 8 9 16
6 19 -9 8 -10 128 -2 128 5 0 5 5 2 11 -4 5 -6 36 -6 67 2 74 2 113 0 189 0
34 2 67 6 72 3 6 1 11 -5 11 -6 0 -9 4 -6 9 3 5 6 31 6 57 0 27 0 60 0 72 0
13 2 27 4 31 4 5 9152 8 9178 2z"/>
<path d="M3894 7169 c-99 -13 -173 -61 -211 -137 -17 -36 -18 -113 -18 -2002
l0 -1965 23 -62 c38 -99 91 -150 187 -181 37 -12 2273 -13 2317 -1 56 15 103
67 119 132 24 98 14 249 -21 318 -21 41 -72 78 -116 85 -66 10 -114 10 -114 1
0 -4 -5 -5 -11 -1 -6 3 -35 6 -65 5 -30 -1 -62 -1 -71 -1 -148 3 -253 1 -262
-4 -6 -4 -11 -3 -11 3 0 7 -8 7 -23 2 -13 -5 -28 -6 -34 -3 -14 9 -156 7 -170
-1 -6 -4 -13 -4 -16 0 -4 3 -30 5 -59 4 -29 -1 -60 -1 -68 -1 -117 3 -250 1
-259 -4 -6 -4 -11 -3 -11 3 0 7 -8 7 -23 2 -13 -5 -28 -6 -34 -3 -14 9 -156 7
-170 -1 -6 -4 -13 -4 -16 0 -4 3 -30 5 -59 4 -29 -1 -60 -1 -68 -1 -117 3
-250 1 -259 -4 -6 -4 -11 -3 -11 1 0 5 -12 9 -27 8 l-26 0 -1 1810 -1 1810
-21 46 c-40 85 -135 135 -274 142 -36 2 -88 0 -116 -4z"/>
</g>
</svg>
